<?xml version="1.0" encoding="UTF-8" standalone="no"?>
<!-- Created with Inkscape (http://www.inkscape.org/) -->

<svg
   width="24px"
   height="24px"
   viewBox="0 0 210 297"
   version="1.1"
   id="svg5"
   inkscape:version="1.1.2 (b8e25be833, 2022-02-05)"
   sodipodi:docname="balloon.svg"
   xmlns:inkscape="http://www.inkscape.org/namespaces/inkscape"
   xmlns:sodipodi="http://sodipodi.sourceforge.net/DTD/sodipodi-0.dtd"
   xmlns="http://www.w3.org/2000/svg"
   xmlns:svg="http://www.w3.org/2000/svg">
  <sodipodi:namedview
     id="namedview7"
     pagecolor="#ffffff"
     bordercolor="#666666"
     borderopacity="1.0"
     inkscape:pageshadow="2"
     inkscape:pageopacity="0.0"
     inkscape:pagecheckerboard="0"
     inkscape:document-units="mm"
     showgrid="false"
     inkscape:zoom="32"
     inkscape:cx="17.921875"
     inkscape:cy="12.3125"
     inkscape:window-width="2560"
     inkscape:window-height="1369"
     inkscape:window-x="-8"
     inkscape:window-y="-8"
     inkscape:window-maximized="1"
     inkscape:current-layer="layer1" />
  <defs
     id="defs2">
    <linearGradient
       id="linearGradient8266"
       inkscape:swatch="solid">
      <stop
         style="stop-color:#000000;stop-opacity:1;"
         offset="0"
         id="stop8264" />
    </linearGradient>
    <inkscape:perspective
       sodipodi:type="inkscape:persp3d"
       inkscape:vp_x="216.16088 : 182.90275 : 1"
       inkscape:vp_y="-6.0402743 : -348.71801 : 0"
       inkscape:vp_z="6.1685433 : 183.78754 : 1"
       inkscape:persp3d-origin="111.46371 : 200.60669 : 1"
       id="perspective37" />
  </defs>
  <g
     inkscape:label="圖層 1"
     inkscape:groupmode="layer"
     id="layer1">
    <ellipse
       style="fill:#000000;fill-opacity:0;stroke:#000000;stroke-width:14.2765;stroke-miterlimit:4;stroke-dasharray:none;stroke-opacity:1"
       id="path8012"
       cx="55.320206"
       cy="98.768318"
       rx="79.859856"
       ry="85.220284"
       transform="matrix(0.99963482,0.02702282,-0.0559783,0.99843199,0,0)" />
    <g
       id="path8012-3"
       transform="matrix(0.76783244,0.02075657,-0.04696126,0.83760348,128.34406,-11.470139)">
      <path
         style="color:#000000;fill:#000000;fill-opacity:0;stroke-width:20.1574;-inkscape-stroke:none"
         d="m 196.95196,162.35219 a 67.348534,66.246719 0 0 1 -67.34854,66.24672 67.348534,66.246719 0 0 1 -67.34853,-66.24672 67.348534,66.246719 0 0 1 67.34853,-66.246721 67.348534,66.246719 0 0 1 67.34854,66.246721 z"
         id="path8865" />
      <path
         style="color:#000000;fill:#000000;stroke-width:1.25473;-inkscape-stroke:none"
         d="m -29.120142,106.73949 c 1.807868,4.21662 3.111061,10.617 4.061615,15.20723 0.950565,4.59024 1.846503,17.63222 1.846503,22.50205 0,0 1.281759,-8.57068 2.673541,-10.15155 2.383787,-2.70765 2.9735,-4.88313 8.401211,-6.24905 5.5845999,-1.4054 7.8508898,0.7352 10.1162168,2.66874 2.70190924,2.30619 3.00929102,10.37701 3.00929102,10.37701 0,-6.60684 0.0116463,-17.9919 -1.28913734,-24.22361 -1.30078458,-6.2317 -4.02330828,-14.97756 -7.47497178,-20.635592 0,0 1.5192196,3.657408 1.6769093,6.210842 0.2412106,3.90587 -0.8332377,7.68339 -5.051438,10.61331 -4.2182,2.92992 -11.490277,0.99786 -14.136146,-1.07585 -2.645869,-2.07371 -3.833594,-5.24353 -3.833594,-5.24353 z m 5.452331,38.01012 c -0.505949,4.65933 -3.7438,14.64148 -5.551668,18.85809 -1.807856,4.21663 -4.021075,8.22292 -6.592994,11.97189 -2.57192,3.74894 -5.502565,7.24056 -8.745284,10.42781 -3.242733,3.18725 -6.797552,6.07014 -10.617834,8.60163 -3.820281,2.53151 -7.906037,4.71162 -12.210617,6.49334 -8.609171,3.56342 -18.093701,5.53321 -28.080584,5.53321 -9.986878,0 -19.471408,-1.96979 -28.080578,-5.53321 -8.60917,-3.56342 -16.343,-8.72047 -22.82846,-15.09497 -6.48545,-6.37451 -11.72255,-13.96645 -15.33827,-22.3997 -3.61574,-8.43323 -5.61011,-17.70775 -5.61011,-27.44738 0,-9.73964 1.99437,-19.01416 5.61011,-27.44739 3.61572,-8.43324 8.85282,-16.025198 15.33827,-22.399696 6.48546,-6.374506 14.21929,-11.531547 22.82846,-15.094972 8.60917,-3.563414 18.0937,-5.533217 28.080578,-5.533217 9.986883,0 19.471413,1.969803 28.080584,5.533217 4.30458,1.78171 11.171767,4.356513 14.992048,6.888019 3.840607,2.544975 -3.397209,-2.482861 -3.77719,-3.785789 -0.379985,-1.302929 -1.465046,-2.759772 -1.7028,-4.273464 -0.233007,-1.483466 -0.06587,-3.039141 0.305099,-4.49403 0.407547,-1.598117 1.081152,-3.171426 2.069804,-4.494043 0.643084,-0.860317 1.513675,-1.556583 2.427706,-2.125687 1.013851,-0.631255 2.135416,-1.153245 3.310051,-1.379751 1.908616,-0.368039 4.028046,-0.639678 5.832188,0.08016 3.663767,1.461819 0.295784,0.120807 5.843859,2.973663 6.352081,3.266281 -13.871243,-10.257709 -19.676559,-12.682095 -11.610633,-4.848772 -24.356615,-7.530717 -37.70479,-7.530717 -13.348168,0 -26.094158,2.681948 -37.704778,7.530722 -11.61064,4.848773 -22.08592,11.864374 -30.89268,20.531676 -8.80675,8.667317 -15.94498,18.986321 -20.88152,30.441941 -4.93655,11.455603 -7.67141,24.047793 -7.67141,37.261453 0,13.21365 2.73486,25.80601 7.67141,37.26183 4.93654,11.45583 12.07477,21.77516 20.88152,30.44278 8.80676,8.6676 19.28204,15.68351 30.89268,20.53251 11.61062,4.84901 24.35661,7.53111 37.704778,7.53111 13.348175,0 26.094157,-2.6821 37.70479,-7.53111 5.805316,-2.42449 11.32679,-5.39072 16.497781,-8.83428 5.170991,-3.44354 9.991501,-7.36443 14.394877,-11.69823 4.403376,-4.33382 8.389633,-9.08055 11.892093,-14.1758 3.502473,-5.09527 6.521174,-10.53905 8.9894406,-16.26698 2.4682791,-5.72791 5.01443313,-11.37428 5.88558253,-23.004 0.26635384,-3.55579 -1.15629543,3.60578 -3.91181223,7.16432 -2.2430358,2.89671 -5.7255189,5.97581 -10.9098349,4.97355 -5.267844,-1.01841 -7.160865,-4.74591 -8.262126,-8.77014 -0.988997,-3.614 0.2254,-15.54904 -0.48181,-9.03627 z"
         id="path8867"
         sodipodi:nodetypes="cscssscscszzcssssssssssssssssscaaaaassssssssssssssssssssss" />
    </g>
    <ellipse
       style="fill:#000000;fill-opacity:1;stroke:none;stroke-width:17.6671;stroke-miterlimit:4;stroke-dasharray:none;stroke-opacity:1"
       id="path8012-4"
       cx="53.38871"
       cy="98.976318"
       rx="56.672615"
       ry="60.47665"
       transform="matrix(0.99963482,0.02702282,-0.0559783,0.99843199,0,0)" />
    <ellipse
       style="fill:#000000;stroke-width:27.9066"
       id="path27079"
       cx="145.69302"
       cy="144.58322"
       rx="9.1065235"
       ry="20.390301"
       transform="matrix(0.8429619,0.53797326,-0.49277576,0.87015634,0,0)" />
    <ellipse
       style="fill:#000000;stroke-width:27.8968"
       id="path27103"
       cx="150.93439"
       cy="148.98326"
       rx="21.688826"
       ry="12.763474"
       transform="matrix(0.89853939,0.43889289,-0.40516224,0.9142448,0,0)" />
    <path
       style="fill:none;stroke:#000000;stroke-width:9.45048;stroke-linecap:round;stroke-linejoin:miter;stroke-miterlimit:4;stroke-dasharray:none;stroke-opacity:1"
       d="m 60.484719,205.29655 c 30.81869,65.56817 103.295461,54.20005 103.295461,54.20005 0,0 136.08552,-22.92338 39.83075,26.20579"
       id="path27236"
       sodipodi:nodetypes="ccc" />
  </g>
</svg>
