<?xml version="1.0" encoding="UTF-8" standalone="no"?>
<!-- Created with Inkscape (http://www.inkscape.org/) -->

<svg
   width="24mm"
   height="24mm"
   viewBox="0 0 210 297"
   version="1.1"
   id="svg3861"
   inkscape:version="1.1 (c68e22c387, 2021-05-23)"
   sodipodi:docname="eraser.svg"
   xmlns:inkscape="http://www.inkscape.org/namespaces/inkscape"
   xmlns:sodipodi="http://sodipodi.sourceforge.net/DTD/sodipodi-0.dtd"
   xmlns="http://www.w3.org/2000/svg"
   xmlns:svg="http://www.w3.org/2000/svg">
  <sodipodi:namedview
     id="namedview3863"
     pagecolor="#ffffff"
     bordercolor="#666666"
     borderopacity="1.0"
     inkscape:pageshadow="2"
     inkscape:pageopacity="0.0"
     inkscape:pagecheckerboard="0"
     inkscape:document-units="mm"
     showgrid="false"
     inkscape:zoom="5.8083614"
     inkscape:cx="33.141877"
     inkscape:cy="33.658374"
     inkscape:window-width="1920"
     inkscape:window-height="1017"
     inkscape:window-x="-8"
     inkscape:window-y="-8"
     inkscape:window-maximized="1"
     inkscape:current-layer="layer1" />
  <defs
     id="defs3858" />
  <g
     inkscape:label="圖層 1"
     inkscape:groupmode="layer"
     id="layer1">
    <g
       id="rect3887"
       transform="matrix(1.1214492,0,0,1.1214492,9.8532997,-36.979668)">
      <path
         style="color:#000000;fill:#000000;fill-opacity:0;stroke-width:49.5;stroke-linejoin:round;-inkscape-stroke:none"
         d="m 148.10426,156.75296 v 27.74559 55.49118 c 0,14.32895 -11.53558,25.86453 -25.86453,25.86453 H 11.25738 c -14.3289493,0 -25.864529,-11.53558 -25.864529,-25.86453 V 129.00738 c 0,-14.32895 11.5355797,-25.86453 25.864529,-25.86453 h 55.491175 27.745588 13.872797"
         id="path4970" />
      <path
         style="color:#000000;fill:#000000;stroke-linejoin:round;-inkscape-stroke:none"
         d="m 11.257813,78.392578 c -27.612316,0 -50.615235,23.002922 -50.615235,50.615232 v 110.98242 c 0,27.61232 23.002919,50.61329 50.615235,50.61329 H 122.24023 c 27.61232,0 50.61329,-23.00097 50.61329,-50.61329 v -60.01375 l -24.75,-24.83798 -24.75,25.687 v 59.16473 c 0,1.04556 -0.0677,1.11329 -1.11329,1.11329 H 11.257813 c -1.045555,0 -1.115235,-0.0677 -1.115235,-1.11329 V 129.00781 c 0,-1.04555 0.06968,-1.11523 1.115235,-1.11523 h 62.239128 l 24.952378,-24.75 -25.759715,-24.750002 z"
         id="path4972"
         sodipodi:nodetypes="cssssccccsssssscccc" />
    </g>
    <g
       id="g50539"
       transform="matrix(1.2961093,0,0,1.2961093,-73.182002,-2.0025775)"
       style="opacity:1;mix-blend-mode:normal;fill:#000000;fill-opacity:0.990338;stroke:#000000;stroke-width:5.35852;stroke-miterlimit:4;stroke-dasharray:none;stroke-opacity:1">
      <g
         id="g5575"
         transform="matrix(1.0088897,1.0088897,-1.0088897,1.0088897,235.95174,-18.648354)"
         style="fill:#000000;fill-opacity:0.990338;stroke:#000000;stroke-width:3.75566;stroke-miterlimit:4;stroke-dasharray:none;stroke-opacity:1">
        <rect
           style="fill:#000000;fill-opacity:0.990338;stroke:#000000;stroke-width:3.75566;stroke-linecap:butt;stroke-linejoin:miter;stroke-miterlimit:4;stroke-dasharray:none;stroke-opacity:1"
           id="rect4796"
           width="24.75"
           height="74.25"
           x="5.999999"
           y="24.75"
           ry="0" />
        <rect
           style="mix-blend-mode:lighten;fill:#000000;fill-opacity:0.990338;stroke:#000000;stroke-width:3.75566;stroke-linecap:butt;stroke-linejoin:miter;stroke-miterlimit:4;stroke-dasharray:none;stroke-opacity:1"
           id="rect4796-0"
           width="24.749998"
           height="74.25"
           x="49.5"
           y="-55.499996"
           ry="0"
           transform="rotate(90)" />
      </g>
    </g>
  </g>
</svg>
