<?xml version="1.0" encoding="UTF-8" standalone="no"?>
<!-- Created with Inkscape (http://www.inkscape.org/) -->

<svg
   width="24mm"
   height="24mm"
   viewBox="0 0 210 297"
   version="1.1"
   id="svg5"
   inkscape:version="1.1 (c68e22c387, 2021-05-23)"
   sodipodi:docname="regionGrowing.svg"
   xmlns:inkscape="http://www.inkscape.org/namespaces/inkscape"
   xmlns:sodipodi="http://sodipodi.sourceforge.net/DTD/sodipodi-0.dtd"
   xmlns="http://www.w3.org/2000/svg"
   xmlns:svg="http://www.w3.org/2000/svg">
  <sodipodi:namedview
     id="namedview7"
     pagecolor="#ffffff"
     bordercolor="#666666"
     borderopacity="1.0"
     inkscape:pageshadow="2"
     inkscape:pageopacity="0.0"
     inkscape:pagecheckerboard="0"
     inkscape:document-units="mm"
     showgrid="false"
     inkscape:zoom="5.8083614"
     inkscape:cx="2.8407323"
     inkscape:cy="41.061495"
     inkscape:window-width="1920"
     inkscape:window-height="1017"
     inkscape:window-x="-8"
     inkscape:window-y="-8"
     inkscape:window-maximized="1"
     inkscape:current-layer="layer1" />
  <defs
     id="defs2" />
  <g
     inkscape:label="圖層 1"
     inkscape:groupmode="layer"
     id="layer1">
    <path
       style="fill:none;stroke:#000000;stroke-width:34.1447;stroke-linecap:butt;stroke-linejoin:miter;stroke-miterlimit:4;stroke-dasharray:none;stroke-opacity:1"
       d="M 25.451733,21.497399 C 9.8778902,43.478412 3.3712484,77.832597 27.464738,125.25104 77.639856,224.00078 -25.062867,256.27868 -25.062867,256.27868"
       id="path61"
       sodipodi:nodetypes="csc" />
    <path
       style="fill:none;stroke:#000000;stroke-width:34.1447;stroke-linecap:butt;stroke-linejoin:miter;stroke-miterlimit:4;stroke-dasharray:none;stroke-opacity:1"
       d="M 240.33184,61.290905 C 219.56615,52.966161 137.03223,95.057748 187.20733,193.8075 c 18.19345,35.80657 16.28681,62.87355 6.46459,82.83109"
       id="path61-3"
       sodipodi:nodetypes="csc" />
    <path
       style="fill:none;stroke:#000000;stroke-width:34.1447;stroke-linecap:butt;stroke-linejoin:miter;stroke-miterlimit:4;stroke-dasharray:none;stroke-opacity:1"
       d="M 240.71147,84.975801 C 221.60819,60.327906 182.12152,40.25684 120.75337,71.43822 22.003622,121.61334 -10.274276,18.910614 -10.274276,18.910614"
       id="path61-3-0"
       sodipodi:nodetypes="csc" />
    <path
       style="fill:none;stroke:#000000;stroke-width:34.1447;stroke-linecap:butt;stroke-linejoin:miter;stroke-miterlimit:4;stroke-dasharray:none;stroke-opacity:1"
       d="M 226.04456,278.69559 C 234.3693,257.9299 192.27772,175.39599 93.52797,225.57108 31.423165,257.12674 -4.3900886,228.21479 -22.417631,202.41155"
       id="path61-3-0-8"
       sodipodi:nodetypes="csc" />
    <path
       style="stroke-width:0.892277;stroke-miterlimit:4;stroke-dasharray:none"
       d="m 61.772486,203.83405 c 3.626977,-4.59209 7.618836,-13.00052 9.083104,-19.13262 2.091149,-8.75733 2.003072,-17.36726 -0.273832,-26.76924 -1.455507,-6.01021 -3.624622,-11.42258 -8.084983,-20.17366 -5.49693,-10.78478 -8.281029,-19.05508 -9.38958,-27.89219 -0.567971,-4.52776 -0.550822,-4.77718 0.286296,-4.16406 11.872155,8.69558 22.168952,11.19274 34.83025,8.44694 8.218369,-1.78228 13.750929,-4.33381 25.785979,-11.89215 15.31602,-9.618871 24.32303,-12.923388 35.55827,-13.045743 3.93198,-0.04282 10.80652,0.999162 10.61751,1.609292 -0.0515,0.16616 -1.0935,1.13765 -2.31561,2.1589 -3.11609,2.60394 -7.6374,8.099611 -10.28486,12.501291 -1.94441,3.23276 -2.57798,4.81316 -4.73644,11.81473 -2.10985,6.84367 -2.53011,8.72195 -2.74183,12.25227 -0.83378,13.90406 2.43928,26.7207 11.07013,43.34832 1.85806,3.57959 3.71842,7.51859 4.13415,8.75331 l 0.75586,2.24497 -5.39834,-1.6442 c -2.96909,-0.90435 -6.64135,-1.72022 -8.16054,-1.81323 -13.36938,-0.81841 -27.10553,3.81756 -43.151595,14.56374 -13.448878,9.00683 -25.613541,12.62543 -36.889121,10.97337 l -2.137737,-0.31321 1.442939,-1.82689 z"
       id="path1429" />
  </g>
</svg>
