<svg width="24" height="24" viewBox="0 0 210 297" version="1.1" id="svg2885" xmlns="http://www.w3.org/2000/svg"><g id="layer1"><path id="path2911" style="fill-opacity:.995392;stroke-width:37.4173px;stroke-opacity:0" d="M191.817 172.766c0 62.098-50.34 112.438-112.438 112.438-62.097 0-112.438-50.34-112.438-112.438S17.281 60.328 79.38 60.328c0 58.008.002 91.933.002 112.44l112.436-.002z"/><g id="g7953" transform="matrix(.87945 0 0 .87575 14.658 18.709)"><path style="fill:#000;fill-opacity:.995392;stroke-width:11.9852px;stroke-linecap:round;stroke-opacity:0" id="rect3735" d="M93.398 112.148h47.566v47.566H93.398z"/><path style="fill:#000;fill-opacity:.995392;stroke-width:11.9852px;stroke-linecap:round;stroke-opacity:0" id="rect3735-5" d="M151.6 111.955h47.566v47.566H151.6z"/><path style="fill:#000;fill-opacity:.995392;stroke-width:11.9852px;stroke-linecap:round;stroke-opacity:0" id="rect3735-3-6" d="M209.317 54.914h47.566v47.566h-47.566z"/><g id="g7941"><path style="fill:#000;fill-opacity:.995392;stroke-width:11.9852px;stroke-linecap:round;stroke-opacity:0" id="rect3735-3" d="M209.607 112.342h47.566v47.566h-47.566z"/><path style="fill:#000;fill-opacity:.995392;stroke-width:11.9852px;stroke-linecap:round;stroke-opacity:0" id="rect3735-7" d="M93.108 54.721h47.566v47.566H93.108z"/><path style="fill:#000;fill-opacity:.995392;stroke-width:11.9852px;stroke-linecap:round;stroke-opacity:0" id="rect3735-5-6" d="M151.31 54.527h47.566v47.566H151.31z"/><path style="fill:#000;fill-opacity:.995392;stroke-width:11.9852px;stroke-linecap:round;stroke-opacity:0" id="rect3735-9" d="M92.722-1.74h47.566v47.566H92.722z"/><path style="fill:#000;fill-opacity:.995392;stroke-width:11.9852px;stroke-linecap:round;stroke-opacity:0" id="rect3735-5-62" d="M150.923-1.934h47.566v47.566h-47.566z"/><path style="fill:#000;fill-opacity:.995392;stroke-width:11.9852px;stroke-linecap:round;stroke-opacity:0" id="rect3735-3-4" d="M208.931-1.547h47.566v47.566h-47.566z"/></g></g></g></svg>