<svg width="24mm" height="24mm" viewBox="0 0 210 297" version="1.1" id="svg5" xmlns="http://www.w3.org/2000/svg"><g id="layer1"><g id="path53273" style="stroke:#000;stroke-width:21.8737px;stroke-miterlimit:4;stroke-dasharray:none;stroke-opacity:1" transform="matrix(1.34982 0 0 1.23761 -38.076 -43.955)"><path style="color:#000;fill:#000;fill-opacity:1;stroke:#000;stroke-width:10.9369px;stroke-linecap:round;stroke-miterlimit:4;stroke-dasharray:none;stroke-opacity:1" d="M107.952 208.956c-13.964-.156-24.54 4.57-31.555 8.155.003 2.743-.259 5.441-.558 9.505-.167 2.271-.705 7.103-.705 7.103-.316 3.353-1.31 8.395-1.905 10.452-1.294 4.474-2.407 6.805-3.51 9.084 0 0 6.268-2.489 11.017-4.318 4.96-1.91 11.722-5.553 19.338-6.503 3.691-.601 14.843.299 22.06 5.423 20.79 15.171 57.885 21.55 78.488-.595 6.038-6.49 5.517-16.507-1.162-22.373-6.679-5.865-15.538-4.768-23.024 1.128-12.384 8-15.291 7.4-31.283-.595-12.725-6.361-23.238-16.31-37.201-16.466z" id="path12470"/></g><g id="rect3463" transform="matrix(1.02916 .33729 -.35273 .98412 -49.439 23.345)" style="fill:#000;fill-opacity:1"><path style="color:#000;fill:#000;fill-opacity:1;stroke-width:0;stroke-linecap:round;-inkscape-stroke:none" d="M89.814-33.554c6.39-23.907 47.397-28.762 57.22-2.103 7.382 34.236-33.136 107.517 0 180.236-8.095-19.089-39.626-30.538-57.19 0 26.085-72.8.53-136.946-.03-178.133z" id="path15355"/></g><g id="path18321" transform="matrix(.94118 .47289 -.43718 .95829 -11.041 -.474)"><path style="color:#000;fill:#000;fill-opacity:0;stroke-width:22.8132px;-inkscape-stroke:none" d="M138.584 156.695a31.975 48.538 0 0 1-5.02 62.145 31.975 48.538 0 0 1-41.201 2.931 31.975 48.538 0 0 1-8.827-61.16" id="path22190"/><path style="color:#000;fill:#000;-inkscape-stroke:none" d="M138.584 156.695c20.964 44.404-73.284 62.75-58.482 8.73-8.622 24.819-12.417 45.127 3.609 63.78 8.013 9.327 19.154 14.711 30.414 13.91 11.26-.8 21.521-7.509 28.738-17.67 14.434-20.321 5.969-44.952-4.28-68.75z" id="path22192"/></g></g></svg>