<svg width="24mm" height="24mm" viewBox="0 0 210 297" version="1.1" id="svg5" xmlns="http://www.w3.org/2000/svg"><g id="layer1"><path style="fill:none;stroke:#000;stroke-width:34.1447px;stroke-linecap:butt;stroke-linejoin:miter;stroke-miterlimit:4;stroke-dasharray:none;stroke-opacity:1" d="M25.452 21.497C9.878 43.478 3.372 77.833 27.465 125.251c50.175 98.75-52.528 131.028-52.528 131.028" id="path61"/><path style="fill:none;stroke:#000;stroke-width:34.1447px;stroke-linecap:butt;stroke-linejoin:miter;stroke-miterlimit:4;stroke-dasharray:none;stroke-opacity:1" d="M240.332 61.29c-20.766-8.324-103.3 33.768-53.125 132.517 18.194 35.807 16.287 62.874 6.465 82.832" id="path61-3"/><path style="fill:none;stroke:#000;stroke-width:34.1447px;stroke-linecap:butt;stroke-linejoin:miter;stroke-miterlimit:4;stroke-dasharray:none;stroke-opacity:1" d="M240.711 84.976c-19.103-24.648-58.59-44.72-119.958-13.538-98.75 50.175-131.027-52.527-131.027-52.527" id="path61-3-0"/><path style="fill:none;stroke:#000;stroke-width:34.1447px;stroke-linecap:butt;stroke-linejoin:miter;stroke-miterlimit:4;stroke-dasharray:none;stroke-opacity:1" d="M226.045 278.696c8.324-20.766-33.767-103.3-132.517-53.125-62.105 31.556-97.918 2.644-115.946-23.16" id="path61-3-0-8"/><path style="stroke-width:.892277px;stroke-miterlimit:4;stroke-dasharray:none" d="M61.772 203.834c3.627-4.592 7.62-13 9.084-19.133 2.09-8.757 2.003-17.367-.274-26.769-1.456-6.01-3.625-11.422-8.085-20.173-5.497-10.785-8.281-19.056-9.39-27.893-.568-4.527-.55-4.777.286-4.164 11.873 8.696 22.17 11.193 34.83 8.447 8.22-1.782 13.752-4.334 25.787-11.892 15.316-9.619 24.323-12.923 35.558-13.046 3.932-.042 10.807 1 10.617 1.61-.051.166-1.093 1.137-2.315 2.159-3.116 2.603-7.638 8.1-10.285 12.5-1.944 3.234-2.578 4.814-4.736 11.816-2.11 6.843-2.53 8.721-2.742 12.252-.834 13.904 2.439 26.72 11.07 43.348 1.858 3.58 3.718 7.519 4.134 8.753l.756 2.245-5.398-1.644c-2.97-.904-6.642-1.72-8.161-1.813-13.37-.818-27.106 3.818-43.152 14.564-13.448 9.007-25.613 12.625-36.889 10.973l-2.137-.313 1.443-1.827z" id="path1429"/></g></svg>